<mxfile host="app.diagrams.net" modified="2023-04-24T11:28:26.565Z" agent="Mozilla/5.0 (Windows NT 10.0; Win64; x64; rv:109.0) Gecko/20100101 Firefox/112.0" etag="_yGCn1IUz6YUPVR_Bcjp" version="21.2.0" type="github">
  <diagram name="Página-1" id="KDg-XEFYZmZJUQmvU0w7">
    <mxGraphModel dx="2901" dy="2311" grid="1" gridSize="8" guides="1" tooltips="1" connect="1" arrows="1" fold="1" page="1" pageScale="1" pageWidth="827" pageHeight="1169" math="0" shadow="0">
      <root>
        <mxCell id="0" />
        <mxCell id="1" parent="0" />
        <mxCell id="QOztynG4jiotEMmLScOm-7" value="&lt;p style=&quot;margin:0px;margin-top:4px;text-align:center;&quot;&gt;&lt;b&gt;&lt;i&gt;Cliente&lt;/i&gt;&lt;/b&gt;&lt;br&gt;&lt;/p&gt;&lt;hr size=&quot;1&quot;&gt;&lt;p style=&quot;margin:0px;margin-left:4px;&quot;&gt;- NombreCliente: String&lt;br&gt;- Dirección: String&lt;/p&gt;&lt;p style=&quot;margin:0px;margin-left:4px;&quot;&gt;- Ciudad: String&lt;/p&gt;&lt;p style=&quot;margin:0px;margin-left:4px;&quot;&gt;- País: String&lt;/p&gt;&lt;p style=&quot;margin:0px;margin-left:4px;&quot;&gt;- CP: int&lt;/p&gt;&lt;p style=&quot;margin:0px;margin-left:4px;&quot;&gt;- Tlf: String&lt;/p&gt;&lt;p style=&quot;margin:0px;margin-left:4px;&quot;&gt;-TarjetaCredito: String&lt;/p&gt;&lt;p style=&quot;margin:0px;margin-left:4px;&quot;&gt;- SaldoCuenta: float&lt;br&gt;&lt;/p&gt;&lt;hr size=&quot;1&quot;&gt;&lt;p style=&quot;margin:0px;margin-left:4px;&quot;&gt;+ RegistroComprador()&lt;/p&gt;&lt;p style=&quot;margin:0px;margin-left:4px;&quot;&gt;+ RegistroVendedor()&lt;br&gt;&lt;/p&gt;&lt;p style=&quot;margin:0px;margin-left:4px;&quot;&gt;+ Login()&lt;/p&gt;&lt;p style=&quot;margin:0px;margin-left:4px;&quot;&gt;+ ActualizaciónPerfil()&lt;br&gt;&lt;/p&gt;" style="verticalAlign=top;align=left;overflow=fill;fontSize=12;fontFamily=Helvetica;html=1;whiteSpace=wrap;" parent="1" vertex="1">
          <mxGeometry x="388" y="544" width="190" height="224" as="geometry" />
        </mxCell>
        <mxCell id="QOztynG4jiotEMmLScOm-8" value="&lt;p style=&quot;margin:0px;margin-top:4px;text-align:center;&quot;&gt;&lt;b&gt;&lt;i&gt;Sistema de pago&lt;/i&gt;&lt;/b&gt;&lt;br&gt;&lt;/p&gt;&lt;hr size=&quot;1&quot;&gt;&lt;p style=&quot;margin:0px;margin-left:4px;&quot;&gt;&lt;br&gt;&lt;/p&gt;&lt;hr size=&quot;1&quot;&gt;&lt;p style=&quot;margin:0px;margin-left:4px;&quot;&gt;+ ConsultarSaldo()&lt;br&gt;&lt;/p&gt;" style="verticalAlign=top;align=left;overflow=fill;fontSize=12;fontFamily=Helvetica;html=1;whiteSpace=wrap;" parent="1" vertex="1">
          <mxGeometry x="388" y="848" width="190" height="88" as="geometry" />
        </mxCell>
        <mxCell id="QOztynG4jiotEMmLScOm-11" value="&lt;p style=&quot;margin:0px;margin-top:4px;text-align:center;&quot;&gt;&lt;b&gt;&lt;i&gt;Usuario&lt;/i&gt;&lt;/b&gt;&lt;br&gt;&lt;/p&gt;&lt;hr size=&quot;1&quot;&gt;&lt;p style=&quot;margin:0px;margin-left:4px;&quot;&gt;- UsuarioID: String&lt;br&gt;- Contraseña: String&lt;/p&gt;&lt;p style=&quot;margin:0px;margin-left:4px;&quot;&gt;- LoginStatus: String&lt;/p&gt;&lt;p style=&quot;margin:0px;margin-left:4px;&quot;&gt;- FechaRegistro: Date&lt;br&gt;&lt;/p&gt;&lt;p style=&quot;margin:0px;margin-left:4px;&quot;&gt;- Email: String&lt;br&gt;&lt;/p&gt;&lt;hr size=&quot;1&quot;&gt;&lt;p style=&quot;margin:0px;margin-left:4px;&quot;&gt;+ VerificaciónLogin()&lt;br&gt;&lt;/p&gt;" style="verticalAlign=top;align=left;overflow=fill;fontSize=12;fontFamily=Helvetica;html=1;whiteSpace=wrap;" parent="1" vertex="1">
          <mxGeometry x="674" y="588" width="190" height="136" as="geometry" />
        </mxCell>
        <mxCell id="QOztynG4jiotEMmLScOm-12" value="&lt;p style=&quot;margin:0px;margin-top:4px;text-align:center;&quot;&gt;&lt;b&gt;&lt;i&gt;Vende&lt;/i&gt;&lt;/b&gt;&lt;br&gt;&lt;/p&gt;&lt;hr size=&quot;1&quot;&gt;&lt;p style=&quot;margin:0px;margin-left:4px;&quot;&gt;- IDventa: int&lt;/p&gt;&lt;p style=&quot;margin:0px;margin-left:4px;&quot;&gt;- FechaVenta: Date&lt;/p&gt;&lt;hr size=&quot;1&quot;&gt;&lt;p style=&quot;margin:0px;margin-left:4px;&quot;&gt;+ venta()&lt;/p&gt;" style="verticalAlign=top;align=left;overflow=fill;fontSize=12;fontFamily=Helvetica;html=1;whiteSpace=wrap;" parent="1" vertex="1">
          <mxGeometry x="671" y="352" width="190" height="96" as="geometry" />
        </mxCell>
        <mxCell id="QOztynG4jiotEMmLScOm-13" value="&lt;p style=&quot;margin:0px;margin-top:4px;text-align:center;&quot;&gt;&lt;b&gt;&lt;i&gt;Compra&lt;/i&gt;&lt;/b&gt;&lt;br&gt;&lt;/p&gt;&lt;hr size=&quot;1&quot;&gt;&lt;p style=&quot;margin:0px;margin-left:4px;&quot;&gt;- IDcompra: int&lt;/p&gt;&lt;p style=&quot;margin:0px;margin-left:4px;&quot;&gt;- FechaCompra: Date&lt;br&gt;&lt;/p&gt;&lt;hr size=&quot;1&quot;&gt;&lt;p style=&quot;margin:0px;margin-left:4px;&quot;&gt;+ compra()&lt;/p&gt;" style="verticalAlign=top;align=left;overflow=fill;fontSize=12;fontFamily=Helvetica;html=1;whiteSpace=wrap;" parent="1" vertex="1">
          <mxGeometry x="-178" y="355" width="190" height="96" as="geometry" />
        </mxCell>
        <mxCell id="QOztynG4jiotEMmLScOm-15" value="&lt;p style=&quot;margin:0px;margin-top:4px;text-align:center;&quot;&gt;&lt;b&gt;&lt;i&gt;Producto Sexual&lt;/i&gt;&lt;/b&gt;&lt;br&gt;&lt;/p&gt;&lt;hr size=&quot;1&quot;&gt;&lt;p style=&quot;margin:0px;margin-left:4px;&quot;&gt;- ProductoID: int&lt;/p&gt;&lt;p style=&quot;margin:0px;margin-left:4px;&quot;&gt;- NombreProducto: String&lt;/p&gt;&lt;p style=&quot;margin:0px;margin-left:4px;&quot;&gt;- Precio: float&lt;/p&gt;&lt;p style=&quot;margin:0px;margin-left:4px;&quot;&gt;- Proveedor: String&lt;/p&gt;&lt;p style=&quot;margin:0px;margin-left:4px;&quot;&gt;- Cantidad: int&lt;br&gt;&lt;/p&gt;&lt;hr size=&quot;1&quot;&gt;&lt;p style=&quot;margin:0px;margin-left:4px;&quot;&gt;+ ProductoAsignado()&lt;br&gt;&lt;/p&gt;&lt;p style=&quot;margin:0px;margin-left:4px;&quot;&gt;+ Retornar()&lt;/p&gt;" style="verticalAlign=top;align=left;overflow=fill;fontSize=12;fontFamily=Helvetica;html=1;whiteSpace=wrap;" parent="1" vertex="1">
          <mxGeometry x="-472" y="352" width="190" height="152" as="geometry" />
        </mxCell>
        <mxCell id="QOztynG4jiotEMmLScOm-16" value="&lt;p style=&quot;margin:0px;margin-top:4px;text-align:center;&quot;&gt;&lt;b&gt;&lt;i&gt;Existencia&lt;/i&gt;&lt;/b&gt;&lt;br&gt;&lt;/p&gt;&lt;hr size=&quot;1&quot;&gt;&lt;p style=&quot;margin:0px;margin-left:4px;&quot;&gt;&lt;br&gt;&lt;/p&gt;&lt;hr size=&quot;1&quot;&gt;&lt;p style=&quot;margin:0px;margin-left:4px;&quot;&gt;+ RegistroDeVenta()&lt;/p&gt;&lt;p style=&quot;margin:0px;margin-left:4px;&quot;&gt;+ Existencias()&lt;br&gt;&lt;/p&gt;" style="verticalAlign=top;align=left;overflow=fill;fontSize=12;fontFamily=Helvetica;html=1;whiteSpace=wrap;" parent="1" vertex="1">
          <mxGeometry x="-472" y="192" width="190" height="96" as="geometry" />
        </mxCell>
        <mxCell id="QOztynG4jiotEMmLScOm-17" value="&lt;p style=&quot;margin:0px;margin-top:4px;text-align:center;&quot;&gt;&lt;b&gt;&lt;i&gt;Puja&lt;/i&gt;&lt;/b&gt;&lt;br&gt;&lt;/p&gt;&lt;hr size=&quot;1&quot;&gt;&lt;p style=&quot;margin:0px;margin-left:4px;&quot;&gt;- IDpuja: int&lt;/p&gt;&lt;p style=&quot;margin:0px;margin-left:4px;&quot;&gt;- Precio: float&lt;/p&gt;&lt;hr size=&quot;1&quot;&gt;&lt;p style=&quot;margin:0px;margin-left:4px;&quot;&gt;+ compra()&lt;/p&gt;&lt;p style=&quot;margin:0px;margin-left:4px;&quot;&gt;+ Mayorque()&lt;br&gt;&lt;/p&gt;" style="verticalAlign=top;align=left;overflow=fill;fontSize=12;fontFamily=Helvetica;html=1;whiteSpace=wrap;" parent="1" vertex="1">
          <mxGeometry x="122" y="168" width="190" height="128" as="geometry" />
        </mxCell>
        <mxCell id="QOztynG4jiotEMmLScOm-18" value="&lt;p style=&quot;margin:0px;margin-top:4px;text-align:center;&quot;&gt;&lt;b&gt;&lt;i&gt;Subasta&lt;/i&gt;&lt;/b&gt;&lt;br&gt;&lt;/p&gt;&lt;hr size=&quot;1&quot;&gt;&lt;p style=&quot;margin:0px;margin-left:4px;&quot;&gt;- IDsubasta: int&lt;br&gt;&lt;/p&gt;&lt;p style=&quot;margin:0px;margin-left:4px;&quot;&gt;- NombreSubasta: String&lt;br&gt;&lt;/p&gt;&lt;p style=&quot;margin:0px;margin-left:4px;&quot;&gt;- TiempoSubasta: int&lt;/p&gt;&lt;p style=&quot;margin:0px;margin-left:4px;&quot;&gt;- EstadoSubasta: boolean&lt;br&gt;&lt;/p&gt;&lt;hr size=&quot;1&quot;&gt;&lt;p style=&quot;margin:0px;margin-left:4px;&quot;&gt;+ subasta()&lt;br&gt;&lt;/p&gt;" style="verticalAlign=top;align=left;overflow=fill;fontSize=12;fontFamily=Helvetica;html=1;whiteSpace=wrap;" parent="1" vertex="1">
          <mxGeometry x="122" y="-24" width="190" height="128" as="geometry" />
        </mxCell>
        <mxCell id="QOztynG4jiotEMmLScOm-19" value="&lt;p style=&quot;margin:0px;margin-top:4px;text-align:center;&quot;&gt;&lt;b&gt;&lt;i&gt;Videos Hechos&lt;/i&gt;&lt;/b&gt;&lt;br&gt;&lt;/p&gt;&lt;hr size=&quot;1&quot;&gt;&lt;p style=&quot;margin:0px;margin-left:4px;&quot;&gt;- CategoriaVideos: categoriaVideos&lt;/p&gt;&lt;p style=&quot;margin:0px;margin-left:4px;&quot;&gt;- CategoriaPornStars: PornStars&lt;br&gt;&lt;/p&gt;&lt;hr size=&quot;1&quot;&gt;&lt;p style=&quot;margin:0px;margin-left:4px;&quot;&gt;&lt;br&gt;&lt;/p&gt;" style="verticalAlign=top;align=left;overflow=fill;fontSize=12;fontFamily=Helvetica;html=1;whiteSpace=wrap;" parent="1" vertex="1">
          <mxGeometry x="666" y="200" width="198" height="64" as="geometry" />
        </mxCell>
        <mxCell id="QOztynG4jiotEMmLScOm-20" value="&lt;p style=&quot;margin:0px;margin-top:4px;text-align:center;&quot;&gt;&lt;b&gt;&lt;i&gt;Videos Carta&lt;/i&gt;&lt;/b&gt;&lt;br&gt;&lt;/p&gt;&lt;hr size=&quot;1&quot;&gt;&lt;hr size=&quot;1&quot;&gt;&lt;p style=&quot;margin:0px;margin-left:4px;&quot;&gt;&lt;br&gt;&lt;/p&gt;" style="verticalAlign=top;align=left;overflow=fill;fontSize=12;fontFamily=Helvetica;html=1;whiteSpace=wrap;" parent="1" vertex="1">
          <mxGeometry x="944" y="200" width="198" height="56" as="geometry" />
        </mxCell>
        <mxCell id="QOztynG4jiotEMmLScOm-21" value="&lt;p style=&quot;margin:0px;margin-top:4px;text-align:center;&quot;&gt;&lt;b&gt;&lt;i&gt;Ropa&lt;/i&gt;&lt;/b&gt;&lt;br&gt;&lt;/p&gt;&lt;hr size=&quot;1&quot;&gt;&lt;p style=&quot;margin:0px;margin-left:4px;&quot;&gt;- CategoriaRopa: categoriaRopa&lt;br&gt;&lt;/p&gt;&lt;hr size=&quot;1&quot;&gt;&lt;p style=&quot;margin:0px;margin-left:4px;&quot;&gt;&lt;br&gt;&lt;/p&gt;" style="verticalAlign=top;align=left;overflow=fill;fontSize=12;fontFamily=Helvetica;html=1;whiteSpace=wrap;" parent="1" vertex="1">
          <mxGeometry x="384" y="200" width="198" height="56" as="geometry" />
        </mxCell>
        <mxCell id="QOztynG4jiotEMmLScOm-22" value="&lt;p style=&quot;margin:0px;margin-top:4px;text-align:center;&quot;&gt;&lt;b&gt;&lt;i&gt;categoriaVideos&lt;br&gt;&lt;/i&gt;&lt;/b&gt;&lt;/p&gt;&lt;hr size=&quot;1&quot;&gt;&lt;p style=&quot;margin:0px;margin-left:4px;&quot;&gt;- Jovencitas&lt;/p&gt;&lt;p style=&quot;margin:0px;margin-left:4px;&quot;&gt;- Maduritas&lt;/p&gt;&lt;p style=&quot;margin:0px;margin-left:4px;&quot;&gt;- Lesbianas&lt;/p&gt;&lt;p style=&quot;margin:0px;margin-left:4px;&quot;&gt;- Gays&lt;/p&gt;&lt;p style=&quot;margin:0px;margin-left:4px;&quot;&gt;- Squirt&lt;/p&gt;&lt;p style=&quot;margin:0px;margin-left:4px;&quot;&gt;- Público&lt;/p&gt;&lt;p style=&quot;margin:0px;margin-left:4px;&quot;&gt;- Masturbacion&lt;/p&gt;&lt;p style=&quot;margin:0px;margin-left:4px;&quot;&gt;- Anal&lt;br&gt;&lt;/p&gt;" style="verticalAlign=top;align=left;overflow=fill;fontSize=12;fontFamily=Helvetica;html=1;whiteSpace=wrap;" parent="1" vertex="1">
          <mxGeometry x="1208" y="644" width="190" height="168" as="geometry" />
        </mxCell>
        <mxCell id="QOztynG4jiotEMmLScOm-23" value="&lt;p style=&quot;margin:0px;margin-top:4px;text-align:center;&quot;&gt;&lt;b&gt;&lt;i&gt;PornStars&lt;br&gt;&lt;/i&gt;&lt;/b&gt;&lt;/p&gt;&lt;hr size=&quot;1&quot;&gt;&lt;p style=&quot;margin:0px;margin-left:4px;&quot;&gt;- AlexandraTargaryen&lt;/p&gt;&lt;p style=&quot;margin:0px;margin-left:4px;&quot;&gt;- AlexisTexas&lt;/p&gt;&lt;p style=&quot;margin:0px;margin-left:4px;&quot;&gt;- LisaAnn&lt;/p&gt;&lt;p style=&quot;margin:0px;margin-left:4px;&quot;&gt;- SashaGrey&lt;br&gt;&lt;/p&gt;" style="verticalAlign=top;align=left;overflow=fill;fontSize=12;fontFamily=Helvetica;html=1;whiteSpace=wrap;" parent="1" vertex="1">
          <mxGeometry x="1208" y="812" width="190" height="112" as="geometry" />
        </mxCell>
        <mxCell id="QOztynG4jiotEMmLScOm-24" value="&lt;p style=&quot;margin:0px;margin-top:4px;text-align:center;&quot;&gt;&lt;b&gt;&lt;i&gt;categoriaRopa&lt;br&gt;&lt;/i&gt;&lt;/b&gt;&lt;/p&gt;&lt;hr size=&quot;1&quot;&gt;&lt;p style=&quot;margin:0px;margin-left:4px;&quot;&gt;- Tangas&lt;/p&gt;&lt;p style=&quot;margin:0px;margin-left:4px;&quot;&gt;- Sujetadores&lt;/p&gt;&lt;p style=&quot;margin:0px;margin-left:4px;&quot;&gt;- Legins&lt;/p&gt;&lt;p style=&quot;margin:0px;margin-left:4px;&quot;&gt;- Liga&lt;/p&gt;&lt;p style=&quot;margin:0px;margin-left:4px;&quot;&gt;- Body&lt;/p&gt;&lt;p style=&quot;margin:0px;margin-left:4px;&quot;&gt;- Bragas&lt;/p&gt;&lt;p style=&quot;margin:0px;margin-left:4px;&quot;&gt;- Calzoncillos&lt;/p&gt;&lt;p style=&quot;margin:0px;margin-left:4px;&quot;&gt;- Arnés&lt;br&gt;&lt;/p&gt;" style="verticalAlign=top;align=left;overflow=fill;fontSize=12;fontFamily=Helvetica;html=1;whiteSpace=wrap;" parent="1" vertex="1">
          <mxGeometry x="1208" y="924" width="190" height="168" as="geometry" />
        </mxCell>
        <mxCell id="QOztynG4jiotEMmLScOm-25" value="&lt;p style=&quot;margin:0px;margin-top:4px;text-align:center;&quot;&gt;&lt;b&gt;&lt;i&gt;Carrito Compra&lt;/i&gt;&lt;/b&gt;&lt;br&gt;&lt;/p&gt;&lt;hr size=&quot;1&quot;&gt;&lt;p style=&quot;margin:0px;margin-left:4px;&quot;&gt;- IDcarrito: int&lt;/p&gt;&lt;p style=&quot;margin:0px;margin-left:4px;&quot;&gt;- FechaAñadida: Date&lt;br&gt;&lt;/p&gt;&lt;hr size=&quot;1&quot;&gt;&lt;p style=&quot;margin:0px;margin-left:4px;&quot;&gt;+ AñadirProducto()&lt;/p&gt;&lt;p style=&quot;margin:0px;margin-left:4px;&quot;&gt;+ ActualizarCantidad()&lt;/p&gt;&lt;p style=&quot;margin:0px;margin-left:4px;&quot;&gt;+ VerDetallesCarrito&lt;/p&gt;&lt;p style=&quot;margin:0px;margin-left:4px;&quot;&gt;+ Comprobar()&lt;br&gt;&lt;/p&gt;" style="verticalAlign=top;align=left;overflow=fill;fontSize=12;fontFamily=Helvetica;html=1;whiteSpace=wrap;" parent="1" vertex="1">
          <mxGeometry x="24" y="480" width="190" height="134" as="geometry" />
        </mxCell>
        <mxCell id="QOztynG4jiotEMmLScOm-26" value="&lt;p style=&quot;margin:0px;margin-top:4px;text-align:center;&quot;&gt;&lt;b&gt;&lt;i&gt;Pedido&lt;/i&gt;&lt;/b&gt;&lt;br&gt;&lt;/p&gt;&lt;hr size=&quot;1&quot;&gt;&lt;p style=&quot;margin:0px;margin-left:4px;&quot;&gt;- FechaCreación: Date&lt;/p&gt;&lt;p style=&quot;margin:0px;margin-left:4px;&quot;&gt;- FechaEnvío: Date&lt;/p&gt;&lt;p style=&quot;margin:0px;margin-left:4px;&quot;&gt;- EstadoPedido: String&lt;/p&gt;&lt;p style=&quot;margin:0px;margin-left:4px;&quot;&gt;- IDenvío: int&lt;br&gt;&lt;/p&gt;&lt;hr size=&quot;1&quot;&gt;&lt;p style=&quot;margin:0px;margin-left:4px;&quot;&gt;+ RealizarPedido()&lt;/p&gt;&lt;p style=&quot;margin:0px;margin-left:4px;&quot;&gt;+ RegistroPedido()&lt;/p&gt;" style="verticalAlign=top;align=left;overflow=fill;fontSize=12;fontFamily=Helvetica;html=1;whiteSpace=wrap;" parent="1" vertex="1">
          <mxGeometry x="24" y="736" width="190" height="136" as="geometry" />
        </mxCell>
        <mxCell id="QOztynG4jiotEMmLScOm-27" value="&lt;p style=&quot;margin:0px;margin-top:4px;text-align:center;&quot;&gt;&lt;b&gt;&lt;i&gt;Información Envío&lt;/i&gt;&lt;/b&gt;&lt;br&gt;&lt;/p&gt;&lt;hr size=&quot;1&quot;&gt;&lt;p style=&quot;margin:0px;margin-left:4px;&quot;&gt;- TipoEnvío: String&lt;/p&gt;&lt;p style=&quot;margin:0px;margin-left:4px;&quot;&gt;- CosteEnvío: float&lt;/p&gt;&lt;p style=&quot;margin:0px;margin-left:4px;&quot;&gt;- RegiónEnvío: String&lt;br&gt;&lt;/p&gt;&lt;hr size=&quot;1&quot;&gt;&lt;p style=&quot;margin:0px;margin-left:4px;&quot;&gt;+ ActualizaciónInfoEnvío()&lt;br&gt;&lt;/p&gt;" style="verticalAlign=top;align=left;overflow=fill;fontSize=12;fontFamily=Helvetica;html=1;whiteSpace=wrap;" parent="1" vertex="1">
          <mxGeometry x="168" y="968" width="190" height="120" as="geometry" />
        </mxCell>
        <mxCell id="QOztynG4jiotEMmLScOm-28" value="&lt;p style=&quot;margin:0px;margin-top:4px;text-align:center;&quot;&gt;&lt;b&gt;&lt;i&gt;Detalles Pedido&lt;/i&gt;&lt;/b&gt;&lt;br&gt;&lt;/p&gt;&lt;hr size=&quot;1&quot;&gt;&lt;p style=&quot;margin:0px;margin-left:4px;&quot;&gt;- IDpedido: int&lt;br&gt;&lt;/p&gt;&lt;p style=&quot;margin:0px;margin-left:4px;&quot;&gt;- CosteUnidad: float&lt;/p&gt;&lt;p style=&quot;margin:0px;margin-left:4px;&quot;&gt;- CosteTotal: float&lt;br&gt;&lt;/p&gt;&lt;hr size=&quot;1&quot;&gt;&lt;p style=&quot;margin:0px;margin-left:4px;&quot;&gt;+ CalcularPrecio()&lt;br&gt;&lt;/p&gt;" style="verticalAlign=top;align=left;overflow=fill;fontSize=12;fontFamily=Helvetica;html=1;whiteSpace=wrap;" parent="1" vertex="1">
          <mxGeometry x="-128" y="968" width="190" height="120" as="geometry" />
        </mxCell>
        <mxCell id="QOztynG4jiotEMmLScOm-33" value="Extends" style="endArrow=block;endSize=16;endFill=0;html=1;rounded=0;exitX=1;exitY=0.5;exitDx=0;exitDy=0;entryX=0;entryY=0.5;entryDx=0;entryDy=0;" parent="1" source="QOztynG4jiotEMmLScOm-7" target="QOztynG4jiotEMmLScOm-11" edge="1">
          <mxGeometry width="160" relative="1" as="geometry">
            <mxPoint x="624" y="824" as="sourcePoint" />
            <mxPoint x="738" y="760" as="targetPoint" />
          </mxGeometry>
        </mxCell>
        <mxCell id="QOztynG4jiotEMmLScOm-37" value="&lt;p style=&quot;margin:0px;margin-top:4px;text-align:center;&quot;&gt;&lt;b&gt;&lt;i&gt;Blog&lt;/i&gt;&lt;/b&gt;&lt;br&gt;&lt;/p&gt;" style="verticalAlign=top;align=left;overflow=fill;fontSize=12;fontFamily=Helvetica;html=1;whiteSpace=wrap;" parent="1" vertex="1">
          <mxGeometry x="976" y="644" width="190" height="24" as="geometry" />
        </mxCell>
        <mxCell id="QOztynG4jiotEMmLScOm-40" value="" style="endArrow=none;html=1;edgeStyle=orthogonalEdgeStyle;rounded=0;entryX=0;entryY=0.5;entryDx=0;entryDy=0;exitX=1;exitY=0.5;exitDx=0;exitDy=0;" parent="1" source="QOztynG4jiotEMmLScOm-11" target="QOztynG4jiotEMmLScOm-37" edge="1">
          <mxGeometry relative="1" as="geometry">
            <mxPoint x="712" y="596" as="sourcePoint" />
            <mxPoint x="1016" y="616" as="targetPoint" />
          </mxGeometry>
        </mxCell>
        <mxCell id="QOztynG4jiotEMmLScOm-44" value="" style="endArrow=none;html=1;edgeStyle=orthogonalEdgeStyle;rounded=0;entryX=0.5;entryY=1;entryDx=0;entryDy=0;exitX=0.5;exitY=0;exitDx=0;exitDy=0;" parent="1" source="QOztynG4jiotEMmLScOm-8" target="QOztynG4jiotEMmLScOm-7" edge="1">
          <mxGeometry relative="1" as="geometry">
            <mxPoint x="872" y="668" as="sourcePoint" />
            <mxPoint x="1024" y="628" as="targetPoint" />
          </mxGeometry>
        </mxCell>
        <mxCell id="QOztynG4jiotEMmLScOm-45" value="" style="endArrow=diamondThin;endFill=1;endSize=24;html=1;rounded=0;entryX=0.5;entryY=0;entryDx=0;entryDy=0;exitX=1;exitY=0.5;exitDx=0;exitDy=0;" parent="1" source="QOztynG4jiotEMmLScOm-13" target="QOztynG4jiotEMmLScOm-7" edge="1">
          <mxGeometry width="160" relative="1" as="geometry">
            <mxPoint x="224" y="560" as="sourcePoint" />
            <mxPoint x="384" y="560" as="targetPoint" />
            <Array as="points">
              <mxPoint x="483" y="400" />
            </Array>
          </mxGeometry>
        </mxCell>
        <mxCell id="QOztynG4jiotEMmLScOm-46" value="" style="endArrow=diamondThin;endFill=1;endSize=24;html=1;rounded=0;entryX=0.5;entryY=0;entryDx=0;entryDy=0;exitX=0;exitY=0.5;exitDx=0;exitDy=0;" parent="1" source="QOztynG4jiotEMmLScOm-12" target="QOztynG4jiotEMmLScOm-7" edge="1">
          <mxGeometry width="160" relative="1" as="geometry">
            <mxPoint x="320" y="408" as="sourcePoint" />
            <mxPoint x="491" y="552" as="targetPoint" />
            <Array as="points">
              <mxPoint x="483" y="400" />
            </Array>
          </mxGeometry>
        </mxCell>
        <mxCell id="QOztynG4jiotEMmLScOm-48" value="" style="endArrow=diamondThin;endFill=1;endSize=24;html=1;rounded=0;entryX=0;entryY=0.5;entryDx=0;entryDy=0;exitX=1;exitY=0.5;exitDx=0;exitDy=0;" parent="1" source="QOztynG4jiotEMmLScOm-25" target="QOztynG4jiotEMmLScOm-7" edge="1">
          <mxGeometry width="160" relative="1" as="geometry">
            <mxPoint x="-248" y="656" as="sourcePoint" />
            <mxPoint x="160" y="672" as="targetPoint" />
            <Array as="points">
              <mxPoint x="280" y="547" />
              <mxPoint x="280" y="656" />
            </Array>
          </mxGeometry>
        </mxCell>
        <mxCell id="QOztynG4jiotEMmLScOm-49" value="" style="endArrow=diamondThin;endFill=1;endSize=24;html=1;rounded=0;entryX=0.5;entryY=1;entryDx=0;entryDy=0;exitX=0.5;exitY=0;exitDx=0;exitDy=0;" parent="1" source="QOztynG4jiotEMmLScOm-28" target="QOztynG4jiotEMmLScOm-26" edge="1">
          <mxGeometry width="160" relative="1" as="geometry">
            <mxPoint x="-120" y="936" as="sourcePoint" />
            <mxPoint x="509" y="824" as="targetPoint" />
            <Array as="points">
              <mxPoint x="-33" y="936" />
              <mxPoint x="120" y="936" />
            </Array>
          </mxGeometry>
        </mxCell>
        <mxCell id="QOztynG4jiotEMmLScOm-50" value="" style="endArrow=diamondThin;endFill=1;endSize=24;html=1;rounded=0;entryX=0.5;entryY=1;entryDx=0;entryDy=0;exitX=0.5;exitY=0;exitDx=0;exitDy=0;" parent="1" source="QOztynG4jiotEMmLScOm-27" target="QOztynG4jiotEMmLScOm-26" edge="1">
          <mxGeometry width="160" relative="1" as="geometry">
            <mxPoint x="-73" y="976" as="sourcePoint" />
            <mxPoint x="127" y="904" as="targetPoint" />
            <Array as="points">
              <mxPoint x="263" y="936" />
              <mxPoint x="119" y="936" />
            </Array>
          </mxGeometry>
        </mxCell>
        <mxCell id="QOztynG4jiotEMmLScOm-59" value="" style="endArrow=none;html=1;edgeStyle=orthogonalEdgeStyle;rounded=0;exitX=0.5;exitY=0;exitDx=0;exitDy=0;entryX=0.5;entryY=1;entryDx=0;entryDy=0;" parent="1" source="QOztynG4jiotEMmLScOm-17" target="QOztynG4jiotEMmLScOm-18" edge="1">
          <mxGeometry relative="1" as="geometry">
            <mxPoint x="288" y="360" as="sourcePoint" />
            <mxPoint x="448" y="360" as="targetPoint" />
          </mxGeometry>
        </mxCell>
        <mxCell id="QOztynG4jiotEMmLScOm-62" value="" style="endArrow=none;html=1;edgeStyle=orthogonalEdgeStyle;rounded=0;exitX=0.5;exitY=0;exitDx=0;exitDy=0;entryX=1;entryY=0.5;entryDx=0;entryDy=0;" parent="1" source="QOztynG4jiotEMmLScOm-21" target="QOztynG4jiotEMmLScOm-18" edge="1">
          <mxGeometry relative="1" as="geometry">
            <mxPoint x="225" y="176" as="sourcePoint" />
            <mxPoint x="225" y="112" as="targetPoint" />
          </mxGeometry>
        </mxCell>
        <mxCell id="QOztynG4jiotEMmLScOm-63" value="" style="endArrow=none;html=1;edgeStyle=orthogonalEdgeStyle;rounded=0;exitX=0.5;exitY=0;exitDx=0;exitDy=0;entryX=1;entryY=0.5;entryDx=0;entryDy=0;" parent="1" source="QOztynG4jiotEMmLScOm-19" target="QOztynG4jiotEMmLScOm-18" edge="1">
          <mxGeometry relative="1" as="geometry">
            <mxPoint x="491" y="208" as="sourcePoint" />
            <mxPoint x="320" y="48" as="targetPoint" />
          </mxGeometry>
        </mxCell>
        <mxCell id="QOztynG4jiotEMmLScOm-64" value="" style="endArrow=none;html=1;edgeStyle=orthogonalEdgeStyle;rounded=0;exitX=0.552;exitY=-0.003;exitDx=0;exitDy=0;entryX=1;entryY=0.5;entryDx=0;entryDy=0;exitPerimeter=0;" parent="1" source="QOztynG4jiotEMmLScOm-20" target="QOztynG4jiotEMmLScOm-18" edge="1">
          <mxGeometry relative="1" as="geometry">
            <mxPoint x="499" y="216" as="sourcePoint" />
            <mxPoint x="328" y="56" as="targetPoint" />
          </mxGeometry>
        </mxCell>
        <mxCell id="QOztynG4jiotEMmLScOm-65" value="" style="endArrow=none;html=1;edgeStyle=orthogonalEdgeStyle;rounded=0;exitX=0.5;exitY=1;exitDx=0;exitDy=0;entryX=0.5;entryY=0;entryDx=0;entryDy=0;" parent="1" source="QOztynG4jiotEMmLScOm-21" target="QOztynG4jiotEMmLScOm-12" edge="1">
          <mxGeometry relative="1" as="geometry">
            <mxPoint x="507" y="224" as="sourcePoint" />
            <mxPoint x="336" y="64" as="targetPoint" />
          </mxGeometry>
        </mxCell>
        <mxCell id="QOztynG4jiotEMmLScOm-70" value="" style="endArrow=none;html=1;edgeStyle=orthogonalEdgeStyle;rounded=0;entryX=0.5;entryY=1;entryDx=0;entryDy=0;exitX=0.5;exitY=0;exitDx=0;exitDy=0;" parent="1" source="QOztynG4jiotEMmLScOm-12" target="QOztynG4jiotEMmLScOm-19" edge="1">
          <mxGeometry relative="1" as="geometry">
            <mxPoint x="488" y="351.17" as="sourcePoint" />
            <mxPoint x="648" y="351.17" as="targetPoint" />
          </mxGeometry>
        </mxCell>
        <mxCell id="QOztynG4jiotEMmLScOm-73" value="" style="endArrow=none;html=1;edgeStyle=orthogonalEdgeStyle;rounded=0;exitX=0.5;exitY=1;exitDx=0;exitDy=0;" parent="1" source="QOztynG4jiotEMmLScOm-20" edge="1">
          <mxGeometry relative="1" as="geometry">
            <mxPoint x="491" y="264" as="sourcePoint" />
            <mxPoint x="768" y="352" as="targetPoint" />
            <Array as="points">
              <mxPoint x="1043" y="304" />
              <mxPoint x="768" y="304" />
            </Array>
          </mxGeometry>
        </mxCell>
        <mxCell id="QOztynG4jiotEMmLScOm-80" value="" style="endArrow=none;html=1;edgeStyle=orthogonalEdgeStyle;rounded=0;entryX=0;entryY=0.75;entryDx=0;entryDy=0;exitX=1;exitY=0.5;exitDx=0;exitDy=0;" parent="1" source="QOztynG4jiotEMmLScOm-15" target="QOztynG4jiotEMmLScOm-13" edge="1">
          <mxGeometry relative="1" as="geometry">
            <mxPoint x="-224" y="264" as="sourcePoint" />
            <mxPoint x="-190" y="406.13599999999997" as="targetPoint" />
          </mxGeometry>
        </mxCell>
        <mxCell id="QOztynG4jiotEMmLScOm-83" value="" style="endArrow=none;html=1;edgeStyle=orthogonalEdgeStyle;rounded=0;exitX=0.5;exitY=0;exitDx=0;exitDy=0;entryX=0.5;entryY=1;entryDx=0;entryDy=0;" parent="1" source="QOztynG4jiotEMmLScOm-15" target="QOztynG4jiotEMmLScOm-16" edge="1">
          <mxGeometry relative="1" as="geometry">
            <mxPoint x="-392" y="328" as="sourcePoint" />
            <mxPoint x="-232" y="328" as="targetPoint" />
          </mxGeometry>
        </mxCell>
        <mxCell id="QOztynG4jiotEMmLScOm-86" value="2" style="text;html=1;strokeColor=none;fillColor=none;align=center;verticalAlign=middle;whiteSpace=wrap;rounded=0;" parent="1" vertex="1">
          <mxGeometry x="472" y="818" width="60" height="30" as="geometry" />
        </mxCell>
        <mxCell id="QOztynG4jiotEMmLScOm-87" value="*" style="text;html=1;strokeColor=none;fillColor=none;align=center;verticalAlign=middle;whiteSpace=wrap;rounded=0;" parent="1" vertex="1">
          <mxGeometry x="472" y="768" width="60" height="30" as="geometry" />
        </mxCell>
        <mxCell id="QOztynG4jiotEMmLScOm-88" value="tienen" style="text;html=1;strokeColor=none;fillColor=none;align=center;verticalAlign=middle;whiteSpace=wrap;rounded=0;" parent="1" vertex="1">
          <mxGeometry x="472" y="788" width="60" height="30" as="geometry" />
        </mxCell>
        <mxCell id="QOztynG4jiotEMmLScOm-89" value="*" style="text;html=1;strokeColor=none;fillColor=none;align=center;verticalAlign=middle;whiteSpace=wrap;rounded=0;" parent="1" vertex="1">
          <mxGeometry x="848" y="624" width="60" height="30" as="geometry" />
        </mxCell>
        <mxCell id="QOztynG4jiotEMmLScOm-90" value="1" style="text;html=1;strokeColor=none;fillColor=none;align=center;verticalAlign=middle;whiteSpace=wrap;rounded=0;" parent="1" vertex="1">
          <mxGeometry x="936" y="624" width="60" height="30" as="geometry" />
        </mxCell>
        <mxCell id="QOztynG4jiotEMmLScOm-91" value="" style="endArrow=none;html=1;edgeStyle=orthogonalEdgeStyle;rounded=0;entryX=1;entryY=0.25;entryDx=0;entryDy=0;exitX=0.5;exitY=0;exitDx=0;exitDy=0;" parent="1" source="QOztynG4jiotEMmLScOm-11" target="QOztynG4jiotEMmLScOm-18" edge="1">
          <mxGeometry relative="1" as="geometry">
            <mxPoint x="760" y="560" as="sourcePoint" />
            <mxPoint x="912" y="560" as="targetPoint" />
            <Array as="points">
              <mxPoint x="769" y="544" />
              <mxPoint x="1408" y="544" />
              <mxPoint x="1408" y="8" />
            </Array>
          </mxGeometry>
        </mxCell>
        <mxCell id="QOztynG4jiotEMmLScOm-92" value="*" style="text;html=1;strokeColor=none;fillColor=none;align=center;verticalAlign=middle;whiteSpace=wrap;rounded=0;" parent="1" vertex="1">
          <mxGeometry x="752" y="558" width="60" height="30" as="geometry" />
        </mxCell>
        <mxCell id="QOztynG4jiotEMmLScOm-94" value="*" style="text;html=1;strokeColor=none;fillColor=none;align=center;verticalAlign=middle;whiteSpace=wrap;rounded=0;" parent="1" vertex="1">
          <mxGeometry x="298" y="-24" width="60" height="30" as="geometry" />
        </mxCell>
        <mxCell id="QOztynG4jiotEMmLScOm-95" value="" style="endArrow=none;html=1;edgeStyle=orthogonalEdgeStyle;rounded=0;entryX=0.25;entryY=1;entryDx=0;entryDy=0;exitX=0.5;exitY=1;exitDx=0;exitDy=0;" parent="1" source="QOztynG4jiotEMmLScOm-11" target="QOztynG4jiotEMmLScOm-15" edge="1">
          <mxGeometry relative="1" as="geometry">
            <mxPoint x="756" y="808" as="sourcePoint" />
            <mxPoint x="908" y="808" as="targetPoint" />
            <Array as="points">
              <mxPoint x="769" y="1120" />
              <mxPoint x="-424" y="1120" />
            </Array>
          </mxGeometry>
        </mxCell>
        <mxCell id="QOztynG4jiotEMmLScOm-96" value="*" style="text;html=1;strokeColor=none;fillColor=none;align=center;verticalAlign=middle;whiteSpace=wrap;rounded=0;" parent="1" vertex="1">
          <mxGeometry x="752" y="724" width="60" height="30" as="geometry" />
        </mxCell>
        <mxCell id="QOztynG4jiotEMmLScOm-97" value="*" style="text;html=1;strokeColor=none;fillColor=none;align=center;verticalAlign=middle;whiteSpace=wrap;rounded=0;" parent="1" vertex="1">
          <mxGeometry x="-473" y="504" width="60" height="30" as="geometry" />
        </mxCell>
        <mxCell id="QOztynG4jiotEMmLScOm-98" value="ven" style="text;html=1;strokeColor=none;fillColor=none;align=center;verticalAlign=middle;whiteSpace=wrap;rounded=0;" parent="1" vertex="1">
          <mxGeometry x="896" y="614" width="60" height="30" as="geometry" />
        </mxCell>
        <mxCell id="QOztynG4jiotEMmLScOm-99" value="ven" style="text;html=1;strokeColor=none;fillColor=none;align=center;verticalAlign=middle;whiteSpace=wrap;rounded=0;" parent="1" vertex="1">
          <mxGeometry x="801" y="544" width="60" height="30" as="geometry" />
        </mxCell>
        <mxCell id="QOztynG4jiotEMmLScOm-101" value="ven" style="text;html=1;strokeColor=none;fillColor=none;align=center;verticalAlign=middle;whiteSpace=wrap;rounded=0;" parent="1" vertex="1">
          <mxGeometry x="768" y="746" width="60" height="30" as="geometry" />
        </mxCell>
        <mxCell id="QOztynG4jiotEMmLScOm-110" value="1" style="text;html=1;strokeColor=none;fillColor=none;align=center;verticalAlign=middle;whiteSpace=wrap;rounded=0;" parent="1" vertex="1">
          <mxGeometry x="472" y="504" width="60" height="30" as="geometry" />
        </mxCell>
        <mxCell id="QOztynG4jiotEMmLScOm-111" value="*" style="text;html=1;strokeColor=none;fillColor=none;align=center;verticalAlign=middle;whiteSpace=wrap;rounded=0;" parent="1" vertex="1">
          <mxGeometry x="-8" y="400" width="60" height="30" as="geometry" />
        </mxCell>
        <mxCell id="QOztynG4jiotEMmLScOm-112" value="*" style="text;html=1;strokeColor=none;fillColor=none;align=center;verticalAlign=middle;whiteSpace=wrap;rounded=0;" parent="1" vertex="1">
          <mxGeometry x="624" y="400" width="60" height="30" as="geometry" />
        </mxCell>
        <mxCell id="QOztynG4jiotEMmLScOm-113" value="Realiza" style="text;html=1;strokeColor=none;fillColor=none;align=center;verticalAlign=middle;whiteSpace=wrap;rounded=0;" parent="1" vertex="1">
          <mxGeometry x="480" y="440" width="60" height="30" as="geometry" />
        </mxCell>
        <mxCell id="QOztynG4jiotEMmLScOm-116" value="*" style="text;html=1;strokeColor=none;fillColor=none;align=center;verticalAlign=middle;whiteSpace=wrap;rounded=0;" parent="1" vertex="1">
          <mxGeometry x="-304" y="400" width="60" height="30" as="geometry" />
        </mxCell>
        <mxCell id="QOztynG4jiotEMmLScOm-117" value="1" style="text;html=1;strokeColor=none;fillColor=none;align=center;verticalAlign=middle;whiteSpace=wrap;rounded=0;" parent="1" vertex="1">
          <mxGeometry x="-224" y="400" width="60" height="30" as="geometry" />
        </mxCell>
        <mxCell id="QOztynG4jiotEMmLScOm-119" value="tiene" style="text;html=1;strokeColor=none;fillColor=none;align=center;verticalAlign=middle;whiteSpace=wrap;rounded=0;" parent="1" vertex="1">
          <mxGeometry x="-264" y="394" width="60" height="30" as="geometry" />
        </mxCell>
        <mxCell id="QOztynG4jiotEMmLScOm-120" value="tiene" style="text;html=1;strokeColor=none;fillColor=none;align=center;verticalAlign=middle;whiteSpace=wrap;rounded=0;" parent="1" vertex="1">
          <mxGeometry x="-384" y="304" width="60" height="30" as="geometry" />
        </mxCell>
        <mxCell id="QOztynG4jiotEMmLScOm-121" value="*" style="text;html=1;strokeColor=none;fillColor=none;align=center;verticalAlign=middle;whiteSpace=wrap;rounded=0;" parent="1" vertex="1">
          <mxGeometry x="-396" y="288" width="60" height="30" as="geometry" />
        </mxCell>
        <mxCell id="QOztynG4jiotEMmLScOm-122" value="1" style="text;html=1;strokeColor=none;fillColor=none;align=center;verticalAlign=middle;whiteSpace=wrap;rounded=0;" parent="1" vertex="1">
          <mxGeometry x="-396" y="325" width="60" height="30" as="geometry" />
        </mxCell>
        <mxCell id="QOztynG4jiotEMmLScOm-123" value="1" style="text;html=1;strokeColor=none;fillColor=none;align=center;verticalAlign=middle;whiteSpace=wrap;rounded=0;" parent="1" vertex="1">
          <mxGeometry x="56" y="234" width="60" height="30" as="geometry" />
        </mxCell>
        <mxCell id="QOztynG4jiotEMmLScOm-124" value="1" style="text;html=1;strokeColor=none;fillColor=none;align=center;verticalAlign=middle;whiteSpace=wrap;rounded=0;" parent="1" vertex="1">
          <mxGeometry x="-96" y="325" width="60" height="30" as="geometry" />
        </mxCell>
        <mxCell id="QOztynG4jiotEMmLScOm-126" value="Realiza" style="text;html=1;strokeColor=none;fillColor=none;align=center;verticalAlign=middle;whiteSpace=wrap;rounded=0;" parent="1" vertex="1">
          <mxGeometry x="-72" y="240" width="60" height="30" as="geometry" />
        </mxCell>
        <mxCell id="QOztynG4jiotEMmLScOm-127" value="tiene" style="text;html=1;strokeColor=none;fillColor=none;align=center;verticalAlign=middle;whiteSpace=wrap;rounded=0;" parent="1" vertex="1">
          <mxGeometry x="208" y="120" width="60" height="30" as="geometry" />
        </mxCell>
        <mxCell id="QOztynG4jiotEMmLScOm-128" value="*" style="text;html=1;strokeColor=none;fillColor=none;align=center;verticalAlign=middle;whiteSpace=wrap;rounded=0;" parent="1" vertex="1">
          <mxGeometry x="200" y="144" width="60" height="30" as="geometry" />
        </mxCell>
        <mxCell id="QOztynG4jiotEMmLScOm-129" value="1..*" style="text;html=1;strokeColor=none;fillColor=none;align=center;verticalAlign=middle;whiteSpace=wrap;rounded=0;" parent="1" vertex="1">
          <mxGeometry x="200" y="104" width="60" height="30" as="geometry" />
        </mxCell>
        <mxCell id="QOztynG4jiotEMmLScOm-130" value="1..*" style="text;html=1;strokeColor=none;fillColor=none;align=center;verticalAlign=middle;whiteSpace=wrap;rounded=0;" parent="1" vertex="1">
          <mxGeometry x="298" y="40" width="60" height="30" as="geometry" />
        </mxCell>
        <mxCell id="QOztynG4jiotEMmLScOm-131" value="0..*" style="text;html=1;strokeColor=none;fillColor=none;align=center;verticalAlign=middle;whiteSpace=wrap;rounded=0;" parent="1" vertex="1">
          <mxGeometry x="440" y="170" width="60" height="30" as="geometry" />
        </mxCell>
        <mxCell id="QOztynG4jiotEMmLScOm-134" value="tiene" style="text;html=1;strokeColor=none;fillColor=none;align=center;verticalAlign=middle;whiteSpace=wrap;rounded=0;" parent="1" vertex="1">
          <mxGeometry x="358" y="40" width="60" height="30" as="geometry" />
        </mxCell>
        <mxCell id="QOztynG4jiotEMmLScOm-135" value="*" style="text;html=1;strokeColor=none;fillColor=none;align=center;verticalAlign=middle;whiteSpace=wrap;rounded=0;" parent="1" vertex="1">
          <mxGeometry x="752" y="325" width="60" height="30" as="geometry" />
        </mxCell>
        <mxCell id="QOztynG4jiotEMmLScOm-136" value="0..*" style="text;html=1;strokeColor=none;fillColor=none;align=center;verticalAlign=middle;whiteSpace=wrap;rounded=0;" parent="1" vertex="1">
          <mxGeometry x="432" y="256" width="60" height="30" as="geometry" />
        </mxCell>
        <mxCell id="QOztynG4jiotEMmLScOm-139" value="Pertenecen" style="text;html=1;strokeColor=none;fillColor=none;align=center;verticalAlign=middle;whiteSpace=wrap;rounded=0;" parent="1" vertex="1">
          <mxGeometry x="776" y="304" width="60" height="30" as="geometry" />
        </mxCell>
        <mxCell id="QOztynG4jiotEMmLScOm-140" value="" style="endArrow=none;html=1;edgeStyle=orthogonalEdgeStyle;rounded=0;entryX=0.5;entryY=1;entryDx=0;entryDy=0;exitX=0.5;exitY=0;exitDx=0;exitDy=0;" parent="1" source="QOztynG4jiotEMmLScOm-26" target="QOztynG4jiotEMmLScOm-25" edge="1">
          <mxGeometry relative="1" as="geometry">
            <mxPoint x="56" y="702" as="sourcePoint" />
            <mxPoint x="148" y="680" as="targetPoint" />
          </mxGeometry>
        </mxCell>
        <mxCell id="QOztynG4jiotEMmLScOm-141" value="1" style="text;html=1;strokeColor=none;fillColor=none;align=center;verticalAlign=middle;whiteSpace=wrap;rounded=0;" parent="1" vertex="1">
          <mxGeometry x="96" y="614" width="60" height="30" as="geometry" />
        </mxCell>
        <mxCell id="QOztynG4jiotEMmLScOm-142" value="1" style="text;html=1;strokeColor=none;fillColor=none;align=center;verticalAlign=middle;whiteSpace=wrap;rounded=0;" parent="1" vertex="1">
          <mxGeometry x="96" y="746" width="60" height="30" as="geometry" />
        </mxCell>
        <mxCell id="QOztynG4jiotEMmLScOm-143" value="" style="endArrow=none;html=1;edgeStyle=orthogonalEdgeStyle;rounded=0;exitX=0;exitY=0.5;exitDx=0;exitDy=0;entryX=0.468;entryY=1.009;entryDx=0;entryDy=0;entryPerimeter=0;" parent="1" source="QOztynG4jiotEMmLScOm-26" target="QOztynG4jiotEMmLScOm-13" edge="1">
          <mxGeometry relative="1" as="geometry">
            <mxPoint x="-140" y="702" as="sourcePoint" />
            <mxPoint x="-108" y="503.5" as="targetPoint" />
          </mxGeometry>
        </mxCell>
        <mxCell id="QOztynG4jiotEMmLScOm-144" value="1" style="text;html=1;strokeColor=none;fillColor=none;align=center;verticalAlign=middle;whiteSpace=wrap;rounded=0;" parent="1" vertex="1">
          <mxGeometry x="-16" y="808" width="60" height="30" as="geometry" />
        </mxCell>
        <mxCell id="QOztynG4jiotEMmLScOm-145" value="tiene" style="text;html=1;strokeColor=none;fillColor=none;align=center;verticalAlign=middle;whiteSpace=wrap;rounded=0;" parent="1" vertex="1">
          <mxGeometry x="108" y="664" width="60" height="30" as="geometry" />
        </mxCell>
        <mxCell id="QOztynG4jiotEMmLScOm-146" value="tiene" style="text;html=1;strokeColor=none;fillColor=none;align=center;verticalAlign=middle;whiteSpace=wrap;rounded=0;" parent="1" vertex="1">
          <mxGeometry x="-64" y="808" width="60" height="30" as="geometry" />
        </mxCell>
        <mxCell id="4jjJmZy7AaW_PoYKcFD5-9" value="" style="endArrow=none;html=1;edgeStyle=orthogonalEdgeStyle;rounded=0;exitX=0.5;exitY=0;exitDx=0;exitDy=0;entryX=0;entryY=0.5;entryDx=0;entryDy=0;" parent="1" source="QOztynG4jiotEMmLScOm-13" target="QOztynG4jiotEMmLScOm-17" edge="1">
          <mxGeometry relative="1" as="geometry">
            <mxPoint x="145" y="389.5" as="sourcePoint" />
            <mxPoint x="32" y="10.5" as="targetPoint" />
          </mxGeometry>
        </mxCell>
        <mxCell id="4jjJmZy7AaW_PoYKcFD5-10" value="&lt;p style=&quot;margin:0px;margin-top:4px;text-align:center;&quot;&gt;&lt;b&gt;&lt;i&gt;Productos Sexuales Videos&lt;br&gt;&lt;/i&gt;&lt;/b&gt;&lt;/p&gt;&lt;hr size=&quot;1&quot;&gt;&lt;p style=&quot;margin:0px;margin-left:4px;&quot;&gt;- ProductoSexualVideoID: int&lt;br&gt;&lt;/p&gt;&lt;p style=&quot;margin:0px;margin-left:4px;&quot;&gt;- CategoriaPornStars: PornStars&lt;br&gt;&lt;/p&gt;&lt;hr size=&quot;1&quot;&gt;&lt;p style=&quot;margin:0px;margin-left:4px;&quot;&gt;&lt;br&gt;&lt;/p&gt;" style="verticalAlign=top;align=left;overflow=fill;fontSize=12;fontFamily=Helvetica;html=1;whiteSpace=wrap;" parent="1" vertex="1">
          <mxGeometry x="1192" y="200" width="198" height="64" as="geometry" />
        </mxCell>
        <mxCell id="4jjJmZy7AaW_PoYKcFD5-11" value="" style="endArrow=none;html=1;edgeStyle=orthogonalEdgeStyle;rounded=0;exitX=0.5;exitY=0;exitDx=0;exitDy=0;entryX=0.25;entryY=0;entryDx=0;entryDy=0;" parent="1" source="4jjJmZy7AaW_PoYKcFD5-10" target="QOztynG4jiotEMmLScOm-130" edge="1">
          <mxGeometry relative="1" as="geometry">
            <mxPoint x="1061" y="208" as="sourcePoint" />
            <mxPoint x="320" y="48" as="targetPoint" />
            <Array as="points">
              <mxPoint x="1291" y="40" />
            </Array>
          </mxGeometry>
        </mxCell>
        <mxCell id="4jjJmZy7AaW_PoYKcFD5-13" value="" style="endArrow=none;html=1;edgeStyle=orthogonalEdgeStyle;rounded=0;exitX=0.5;exitY=1;exitDx=0;exitDy=0;entryX=0.267;entryY=0.633;entryDx=0;entryDy=0;entryPerimeter=0;" parent="1" source="4jjJmZy7AaW_PoYKcFD5-10" target="QOztynG4jiotEMmLScOm-135" edge="1">
          <mxGeometry relative="1" as="geometry">
            <mxPoint x="1381" y="489" as="sourcePoint" />
            <mxPoint x="928" y="329" as="targetPoint" />
            <Array as="points">
              <mxPoint x="1291" y="304" />
              <mxPoint x="768" y="304" />
            </Array>
          </mxGeometry>
        </mxCell>
        <mxCell id="4jjJmZy7AaW_PoYKcFD5-19" value="0..*" style="text;html=1;strokeColor=none;fillColor=none;align=center;verticalAlign=middle;whiteSpace=wrap;rounded=0;" parent="1" vertex="1">
          <mxGeometry x="720" y="258" width="60" height="30" as="geometry" />
        </mxCell>
        <mxCell id="4jjJmZy7AaW_PoYKcFD5-25" value="0..*" style="text;html=1;strokeColor=none;fillColor=none;align=center;verticalAlign=middle;whiteSpace=wrap;rounded=0;" parent="1" vertex="1">
          <mxGeometry x="1000" y="256" width="60" height="30" as="geometry" />
        </mxCell>
        <mxCell id="4jjJmZy7AaW_PoYKcFD5-26" value="0..*" style="text;html=1;strokeColor=none;fillColor=none;align=center;verticalAlign=middle;whiteSpace=wrap;rounded=0;" parent="1" vertex="1">
          <mxGeometry x="1248" y="258" width="60" height="30" as="geometry" />
        </mxCell>
        <mxCell id="4jjJmZy7AaW_PoYKcFD5-27" value="0..*" style="text;html=1;strokeColor=none;fillColor=none;align=center;verticalAlign=middle;whiteSpace=wrap;rounded=0;" parent="1" vertex="1">
          <mxGeometry x="716" y="168" width="60" height="30" as="geometry" />
        </mxCell>
        <mxCell id="4jjJmZy7AaW_PoYKcFD5-28" value="0..*" style="text;html=1;strokeColor=none;fillColor=none;align=center;verticalAlign=middle;whiteSpace=wrap;rounded=0;" parent="1" vertex="1">
          <mxGeometry x="1008" y="168" width="60" height="30" as="geometry" />
        </mxCell>
        <mxCell id="4jjJmZy7AaW_PoYKcFD5-29" value="0..*" style="text;html=1;strokeColor=none;fillColor=none;align=center;verticalAlign=middle;whiteSpace=wrap;rounded=0;" parent="1" vertex="1">
          <mxGeometry x="1241" y="170" width="60" height="30" as="geometry" />
        </mxCell>
        <mxCell id="geiwK-J4m8Od3RJHq93z-4" value="1" style="text;html=1;strokeColor=none;fillColor=none;align=center;verticalAlign=middle;whiteSpace=wrap;rounded=0;" vertex="1" parent="1">
          <mxGeometry x="-104" y="456" width="60" height="30" as="geometry" />
        </mxCell>
      </root>
    </mxGraphModel>
  </diagram>
</mxfile>
